<svg width="60" height="40" viewBox="0 0 60 40" fill="none" xmlns="http://www.w3.org/2000/svg">
<path d="M59.5439 9.44151C59.3221 8.90745 58.8045 8.55896 58.2302 8.55896H42.6512V1.42813C42.6512 0.639829 42.0143 0 41.2295 0H18.4822C17.6974 0 17.0604 0.639829 17.0604 1.42813V8.55909H1.42174C0.847411 8.55909 0.329867 8.90759 0.108081 9.43884C-0.110906 9.9729 0.00851714 10.587 0.415169 10.9955L28.7782 39.5801C29.0454 39.8486 29.4066 40 29.7847 40C30.1628 40 30.524 39.8486 30.7913 39.583L59.2368 10.9983C59.6434 10.5897 59.7656 9.97571 59.5439 9.44151Z" fill="#EEF2FA"/>
</svg>
