<svg width="20" height="14" viewBox="0 0 20 14" fill="none" xmlns="http://www.w3.org/2000/svg">
<path d="M20 0.333008H0V13.6665H20V0.333008Z" fill="#F0F0F0"/>
<path d="M11.25 0.333008H8.75V5.74965H0V8.24965H8.75V13.6663H11.25V8.24965H20V5.74965H11.25V0.333008Z" fill="#D80027"/>
<path d="M15.3818 9.31836L19.9996 11.8838V9.31836H15.3818Z" fill="#0052B4"/>
<path d="M12.1738 9.31836L19.9999 13.6662V12.4367L14.3869 9.31836H12.1738Z" fill="#0052B4"/>
<path d="M17.9153 13.6666L12.1738 10.4766V13.6666H17.9153Z" fill="#0052B4"/>
<path d="M12.1738 9.31836L19.9999 13.6662V12.4367L14.3869 9.31836H12.1738Z" fill="#F0F0F0"/>
<path d="M12.1738 9.31836L19.9999 13.6662V12.4367L14.3869 9.31836H12.1738Z" fill="#D80027"/>
<path d="M3.52895 9.31836L0 11.2789V9.31836H3.52895Z" fill="#0052B4"/>
<path d="M7.82645 9.87109V13.6661H0.996094L7.82645 9.87109Z" fill="#0052B4"/>
<path d="M5.61301 9.31836L0 12.4367V13.6662L7.82609 9.31836H5.61301Z" fill="#D80027"/>
<path d="M4.61777 4.6807L0 2.11523V4.6807H4.61777Z" fill="#0052B4"/>
<path d="M7.82609 4.68082L0 0.333008V1.56246L5.61301 4.68082H7.82609Z" fill="#0052B4"/>
<path d="M2.08496 0.333008L7.82644 3.52301V0.333008H2.08496Z" fill="#0052B4"/>
<path d="M7.82609 4.68082L0 0.333008V1.56246L5.61301 4.68082H7.82609Z" fill="#F0F0F0"/>
<path d="M7.82609 4.68082L0 0.333008V1.56246L5.61301 4.68082H7.82609Z" fill="#D80027"/>
<path d="M16.4707 4.68125L19.9996 2.7207V4.68125H16.4707Z" fill="#0052B4"/>
<path d="M12.1738 4.12797V0.333008H19.0042L12.1738 4.12797Z" fill="#0052B4"/>
<path d="M14.3869 4.68082L19.9999 1.56246V0.333008L12.1738 4.68082H14.3869Z" fill="#D80027"/>
</svg>
