<svg width="91" height="91" viewBox="0 0 91 91" fill="none" xmlns="http://www.w3.org/2000/svg">
<g clip-path="url(#clip0)">
<path d="M52.2251 57.0115C52.3843 56.3405 52.4935 55.6306 52.5263 54.8707C53.1567 41.0725 45.617 29.7739 34.3154 22.5105C27.5933 18.1883 21.2177 22.9005 19.5981 28.9095C15.4319 25.5937 8.21683 30.5557 11.4624 36.006C11.581 36.2041 11.7027 36.4039 11.8244 36.6036C8.56635 36.5911 -1.81626 36.5583 1.09068 36.6067C4.52659 36.666 12.7715 45.9127 12.7715 45.9127V38.1109C15.304 41.9837 18.5417 45.6069 23.3601 46.1545C25.5571 46.4058 27.3718 45.7254 28.8635 44.5349C30.7468 46.8395 31.7064 49.4266 31.8937 52.5317C30.2444 52.5067 28.5904 52.5738 26.9208 52.7689C21.1615 53.4476 17.6071 54.7162 16.443 60.7408C14.6923 69.8283 19.4186 76.466 24.5163 83.4127C28.6637 89.0628 38.21 83.5875 34.008 77.8579C30.5721 73.1768 27.1159 69.3305 27.2579 63.8911C30.6157 63.3809 33.9549 63.5182 37.3643 63.8443C39.0323 64.5621 40.9141 64.8523 42.7772 64.7072C45.5562 73.9991 50.8333 82.2752 57.6676 89.3343C62.6077 94.4382 70.3736 86.6474 65.4413 81.5653C58.6647 74.5562 54.1256 66.447 52.2251 57.0115Z" fill="#F48989"/>
<path d="M10.618 12.4059C10.632 12.562 10.6367 12.718 10.6586 12.8756C11.3592 17.9624 16.048 21.5184 21.1317 20.8178C26.2184 20.1188 29.7698 15.4315 29.0739 10.3447C28.9303 9.28679 28.6058 8.30221 28.147 7.40344C28.4607 7.25209 28.6027 6.89165 28.4966 6.14111L28.1938 3.92073C27.8506 1.4382 25.5615 -0.300038 23.0821 0.0432407L13.1863 1.40075C10.6976 1.74403 8.96401 4.03307 9.30573 6.51872L9.54758 8.31469C8.16043 9.42098 6.9886 10.8191 7.24294 12.3014C7.46451 13.6168 8.92188 13.2907 10.618 12.4059Z" fill="#F48989"/>
<path d="M35.7227 20.9071C35.7227 20.9071 58.0045 32.8532 55.3722 50.4603C49.602 65.1401 74.7971 80.2599 88.497 46.4033C88.4955 46.4033 105.94 0.00144842 35.7227 20.9071ZM73.4474 48.5348V51.3653H70.4359V48.7017C69.0409 48.5707 67.6538 48.1104 66.7566 47.4737L66.3337 47.1695L67.426 44.1143L68.1593 44.6027C69.1096 45.2377 70.3376 45.6044 71.5141 45.6044C72.9543 45.6044 73.9155 44.857 73.9155 43.7476C73.9155 42.9986 73.6175 42.1857 71.4127 41.2932C69.0846 40.3819 66.6989 39.054 66.6989 36.1643C66.6989 33.8409 68.2264 32.0293 70.6216 31.4255V28.6746H73.6066V31.2382C74.7472 31.3537 75.7442 31.6704 76.6414 32.1963L77.1423 32.4927L76.0033 35.5011L75.3011 35.1017C74.8892 34.8661 73.9171 34.309 72.3739 34.309C70.8525 34.309 70.3111 35.1079 70.3111 35.8553C70.3111 36.6651 70.7137 37.1894 73.1057 38.1818C75.1747 39.0244 77.5574 40.4006 77.5574 43.5666C77.5527 45.9649 75.9252 47.9028 73.4474 48.5348Z" fill="#F48989"/>
</g>
<defs>
<clipPath id="clip0">
<rect width="91" height="91" fill="white"/>
</clipPath>
</defs>
</svg>
