<svg width="733" height="100" viewBox="0 0 733 100" fill="none" xmlns="http://www.w3.org/2000/svg">
<path d="M298.339 34.9053L298.452 36.2075C299.238 35.2026 300.294 34.7002 301.621 34.7002C303.022 34.7002 303.969 35.2573 304.461 36.3716C305.213 35.2573 306.3 34.7002 307.722 34.7002C309.971 34.7002 311.126 36.0605 311.188 38.7812V46H307.722V38.9966C307.722 38.4292 307.626 38.0156 307.435 37.7559C307.243 37.4961 306.895 37.3662 306.389 37.3662C305.705 37.3662 305.196 37.6704 304.861 38.2788L304.871 38.4224V46H301.405V39.0171C301.405 38.436 301.313 38.0156 301.128 37.7559C300.944 37.4961 300.592 37.3662 300.072 37.3662C299.409 37.3662 298.903 37.6704 298.555 38.2788V46H295.099V34.9053H298.339Z" fill="#EEF2FA"/>
<path d="M319.696 41.1602L321.542 34.9053H325.244L320.722 47.856L320.527 48.3276C319.884 49.7632 318.749 50.481 317.122 50.481C316.671 50.481 316.196 50.4126 315.697 50.2759V47.8047H316.148C316.634 47.8047 317.003 47.7329 317.256 47.5894C317.516 47.4526 317.707 47.2031 317.83 46.8408L318.107 46.1025L314.251 34.9053H317.943L319.696 41.1602Z" fill="#EEF2FA"/>
<path d="M335.003 40.9038H328.841V38.2275H335.003V40.9038Z" fill="#EEF2FA"/>
<path d="M345.614 42.8828C345.614 42.5889 345.46 42.353 345.153 42.1753C344.845 41.9976 344.26 41.813 343.399 41.6216C342.538 41.4302 341.827 41.1807 341.266 40.873C340.706 40.5586 340.279 40.1792 339.985 39.7349C339.691 39.2905 339.544 38.7812 339.544 38.207C339.544 37.1885 339.964 36.3511 340.805 35.6948C341.646 35.0317 342.746 34.7002 344.107 34.7002C345.57 34.7002 346.745 35.0317 347.634 35.6948C348.523 36.3579 348.967 37.2295 348.967 38.3096H345.501C345.501 37.4209 345.033 36.9766 344.096 36.9766C343.734 36.9766 343.43 37.0791 343.184 37.2842C342.938 37.4824 342.815 37.7319 342.815 38.0327C342.815 38.3403 342.965 38.5898 343.266 38.7812C343.567 38.9727 344.045 39.1299 344.701 39.2529C345.364 39.376 345.946 39.5229 346.445 39.6938C348.112 40.2681 348.946 41.2969 348.946 42.7803C348.946 43.792 348.495 44.6157 347.593 45.2515C346.697 45.8872 345.535 46.2051 344.107 46.2051C343.156 46.2051 342.309 46.0342 341.564 45.6924C340.819 45.3506 340.237 44.8857 339.821 44.2979C339.404 43.71 339.195 43.0913 339.195 42.4419H342.425C342.439 42.9546 342.61 43.3306 342.938 43.5698C343.266 43.8022 343.686 43.9185 344.199 43.9185C344.671 43.9185 345.023 43.8228 345.255 43.6313C345.494 43.4399 345.614 43.1904 345.614 42.8828Z" fill="#EEF2FA"/>
<path d="M356.317 46H352.851V34.9053H356.317V46ZM352.646 32.0444C352.646 31.5522 352.824 31.1489 353.179 30.8345C353.535 30.52 353.996 30.3628 354.564 30.3628C355.131 30.3628 355.592 30.52 355.948 30.8345C356.303 31.1489 356.481 31.5522 356.481 32.0444C356.481 32.5366 356.303 32.9399 355.948 33.2544C355.592 33.5688 355.131 33.7261 354.564 33.7261C353.996 33.7261 353.535 33.5688 353.179 33.2544C352.824 32.9399 352.646 32.5366 352.646 32.0444Z" fill="#EEF2FA"/>
<path d="M364.58 32.147V34.9053H366.405V37.3047H364.58V42.3804C364.58 42.7974 364.655 43.0879 364.805 43.252C364.956 43.416 365.253 43.498 365.697 43.498C366.039 43.498 366.326 43.4775 366.559 43.4365V45.9077C365.937 46.106 365.287 46.2051 364.61 46.2051C363.421 46.2051 362.542 45.9248 361.975 45.3643C361.408 44.8037 361.124 43.9526 361.124 42.811V37.3047H359.709V34.9053H361.124V32.147H364.58Z" fill="#EEF2FA"/>
<path d="M375.242 46.2051C373.539 46.2051 372.162 45.6992 371.109 44.6875C370.057 43.6689 369.53 42.3462 369.53 40.7192V40.4321C369.53 39.2974 369.739 38.2959 370.156 37.4277C370.579 36.5596 371.195 35.8896 372.001 35.418C372.808 34.9395 373.765 34.7002 374.872 34.7002C376.431 34.7002 377.662 35.1855 378.564 36.1562C379.466 37.1201 379.917 38.4668 379.917 40.1963V41.5396H373.047C373.17 42.1616 373.44 42.6504 373.857 43.0059C374.274 43.3613 374.814 43.5391 375.477 43.5391C376.571 43.5391 377.426 43.1562 378.041 42.3906L379.62 44.2568C379.189 44.8516 378.578 45.3267 377.785 45.6821C376.998 46.0308 376.151 46.2051 375.242 46.2051ZM374.852 37.3662C373.84 37.3662 373.239 38.0361 373.047 39.376H376.534V39.1094C376.547 38.5557 376.407 38.1284 376.113 37.8276C375.819 37.52 375.399 37.3662 374.852 37.3662Z" fill="#EEF2FA"/>
<path d="M385.555 42.647C386.102 42.647 386.556 42.811 386.919 43.1392C387.281 43.4604 387.462 43.874 387.462 44.3799C387.462 44.8857 387.281 45.3027 386.919 45.6309C386.556 45.9521 386.102 46.1128 385.555 46.1128C385.001 46.1128 384.543 45.9487 384.181 45.6206C383.825 45.2925 383.648 44.8789 383.648 44.3799C383.648 43.8809 383.825 43.4673 384.181 43.1392C384.543 42.811 385.001 42.647 385.555 42.647Z" fill="#EEF2FA"/>
<path d="M396.566 43.5391C397.051 43.5391 397.427 43.4092 397.694 43.1494C397.96 42.8828 398.09 42.5137 398.083 42.042H401.323C401.323 43.2588 400.886 44.2568 400.011 45.0361C399.143 45.8154 398.022 46.2051 396.648 46.2051C395.034 46.2051 393.763 45.6992 392.833 44.6875C391.904 43.6758 391.439 42.2744 391.439 40.4834V40.3398C391.439 39.2188 391.644 38.231 392.054 37.3765C392.471 36.5151 393.069 35.8555 393.848 35.3975C394.628 34.9326 395.55 34.7002 396.617 34.7002C398.059 34.7002 399.204 35.1001 400.052 35.8999C400.9 36.6997 401.323 37.7832 401.323 39.1504H398.083C398.083 38.5762 397.943 38.1353 397.663 37.8276C397.383 37.52 397.007 37.3662 396.535 37.3662C395.639 37.3662 395.116 37.937 394.966 39.0786C394.918 39.4409 394.894 39.9399 394.894 40.5757C394.894 41.6899 395.028 42.4624 395.294 42.8931C395.561 43.3237 395.985 43.5391 396.566 43.5391Z" fill="#EEF2FA"/>
<path d="M404.449 40.3501C404.449 39.2427 404.664 38.2583 405.095 37.397C405.525 36.5288 406.144 35.8623 406.951 35.3975C407.757 34.9326 408.704 34.7002 409.791 34.7002C411.452 34.7002 412.761 35.2163 413.718 36.2485C414.675 37.2739 415.154 38.6719 415.154 40.4424V40.5654C415.154 42.2949 414.672 43.6689 413.708 44.6875C412.751 45.6992 411.452 46.2051 409.812 46.2051C408.233 46.2051 406.964 45.7334 406.007 44.79C405.05 43.8398 404.534 42.5547 404.459 40.9346L404.449 40.3501ZM407.904 40.5654C407.904 41.5908 408.065 42.3428 408.386 42.8213C408.708 43.2998 409.183 43.5391 409.812 43.5391C411.042 43.5391 411.671 42.5923 411.698 40.6987V40.3501C411.698 38.3608 411.063 37.3662 409.791 37.3662C408.636 37.3662 408.01 38.2241 407.915 39.9399L407.904 40.5654Z" fill="#EEF2FA"/>
<path d="M422.042 34.9053L422.155 36.2075C422.941 35.2026 423.998 34.7002 425.324 34.7002C426.725 34.7002 427.672 35.2573 428.164 36.3716C428.916 35.2573 430.003 34.7002 431.425 34.7002C433.674 34.7002 434.829 36.0605 434.891 38.7812V46H431.425V38.9966C431.425 38.4292 431.329 38.0156 431.138 37.7559C430.946 37.4961 430.598 37.3662 430.092 37.3662C429.408 37.3662 428.899 37.6704 428.564 38.2788L428.574 38.4224V46H425.108V39.0171C425.108 38.436 425.016 38.0156 424.832 37.7559C424.647 37.4961 424.295 37.3662 423.775 37.3662C423.112 37.3662 422.606 37.6704 422.258 38.2788V46H418.802V34.9053H422.042Z" fill="#EEF2FA"/>
<path d="M263.714 73.9227L263.701 74.8609C264.361 74.1674 265.216 73.8499 266.266 73.9085C267.447 73.9744 268.225 74.4716 268.601 75.4002C268.904 75.0102 269.286 74.7029 269.748 74.4783C270.214 74.2539 270.754 74.1588 271.368 74.193C273.219 74.2963 274.105 75.329 274.027 77.2912L273.712 82.9465L272.269 82.866L272.579 77.2966C272.613 76.6933 272.5 76.2358 272.241 75.924C271.982 75.607 271.528 75.4304 270.878 75.3942C270.342 75.3643 269.889 75.5007 269.517 75.8034C269.146 76.1009 268.917 76.5185 268.829 77.0561L268.517 82.6568L267.066 82.5759L267.374 77.0454C267.443 75.8182 266.876 75.171 265.675 75.104C264.729 75.0513 264.059 75.4182 263.665 76.2048L263.322 82.3671L261.879 82.2866L262.349 73.8466L263.714 73.9227Z" fill="#F48989"/>
<path d="M280.373 81.1975L282.691 74.981L284.236 75.0671L280.299 84.6206C279.696 85.9953 278.822 86.6508 277.678 86.587L277.406 86.5484L276.874 86.417L276.939 85.2469L277.327 85.2999C277.816 85.3271 278.201 85.2495 278.482 85.067C278.769 84.8847 279.015 84.5359 279.222 84.0206L279.589 83.1804L277.044 74.666L278.619 74.7539L280.373 81.1975Z" fill="#F48989"/>
<path d="M289.897 79.6003L286.09 79.388L286.156 78.2101L289.962 78.4224L289.897 79.6003Z" fill="#F48989"/>
<path d="M297.709 82.039C297.731 81.649 297.599 81.3391 297.315 81.1094C297.036 80.8748 296.534 80.659 295.809 80.4621C295.09 80.2655 294.521 80.0459 294.101 79.8034C293.687 79.5613 293.384 79.2836 293.193 78.9703C293.007 78.6574 292.926 78.2929 292.949 77.8769C292.988 77.1853 293.311 76.6165 293.921 76.1706C294.535 75.7249 295.297 75.5275 296.207 75.5782C297.164 75.6316 297.925 75.9218 298.49 76.4489C299.061 76.9762 299.324 77.6247 299.282 78.3944L297.831 78.3135C297.853 77.9183 297.703 77.5682 297.381 77.2633C297.064 76.9588 296.651 76.7923 296.141 76.7639C295.616 76.7346 295.198 76.8261 294.889 77.0383C294.58 77.2506 294.415 77.5414 294.395 77.9106C294.375 78.259 294.498 78.5293 294.764 78.7215C295.03 78.9137 295.517 79.1104 296.226 79.3116C296.94 79.5131 297.514 79.7381 297.949 79.9867C298.383 80.2352 298.699 80.5241 298.894 80.8532C299.095 81.1774 299.183 81.5657 299.158 82.0181C299.116 82.7721 298.78 83.3612 298.152 83.7851C297.523 84.2039 296.728 84.3865 295.766 84.3328C295.09 84.2951 294.498 84.1422 293.992 83.874C293.485 83.6058 293.095 83.2502 292.823 82.8072C292.556 82.3594 292.436 81.8858 292.464 81.3866L293.907 81.4671C293.906 81.9521 294.077 82.3477 294.42 82.6537C294.768 82.9548 295.239 83.1219 295.831 83.155C296.377 83.1854 296.82 83.1006 297.16 82.9004C297.505 82.6954 297.688 82.4083 297.709 82.039Z" fill="#F48989"/>
<path d="M304.073 84.6396L302.629 84.5591L303.1 76.1191L304.543 76.1996L304.073 84.6396ZM303.108 73.8739C303.121 73.6398 303.202 73.4461 303.352 73.2928C303.506 73.1397 303.724 73.071 304.005 73.0866C304.286 73.1023 304.494 73.1948 304.631 73.3641C304.768 73.5334 304.829 73.7351 304.816 73.9691C304.803 74.2031 304.72 74.3941 304.565 74.542C304.411 74.6899 304.193 74.756 303.913 74.7403C303.632 74.7247 303.423 74.6348 303.286 74.4706C303.154 74.3068 303.095 74.1079 303.108 73.8739Z" fill="#F48989"/>
<path d="M310.529 74.4833L310.415 76.527L311.991 76.6149L311.929 77.7303L310.353 77.6425L310.061 82.8765C310.042 83.2146 310.098 83.4733 310.229 83.6527C310.36 83.827 310.595 83.9235 310.933 83.9423C311.099 83.9516 311.33 83.9332 311.625 83.887L311.559 85.0571C311.174 85.1399 310.802 85.1713 310.443 85.1513C309.798 85.1154 309.323 84.8932 309.017 84.4849C308.711 84.0767 308.578 83.5137 308.618 82.7961L308.91 77.562L307.373 77.4763L307.436 76.3609L308.972 76.4466L309.086 74.4029L310.529 74.4833Z" fill="#F48989"/>
<path d="M318.304 85.5897C317.16 85.5259 316.25 85.0996 315.574 84.3107C314.899 83.5167 314.596 82.4904 314.666 81.2319L314.681 80.9667C314.728 80.1295 314.928 79.3921 315.282 78.7546C315.641 78.1121 316.117 77.6222 316.709 77.2849C317.308 76.9427 317.942 76.7903 318.613 76.8277C319.71 76.8889 320.543 77.2978 321.111 78.0546C321.679 78.8114 321.926 79.8632 321.85 81.21L321.817 81.8107L316.099 81.4918C316.074 82.325 316.278 83.0119 316.712 83.5526C317.152 84.0883 317.73 84.3762 318.448 84.4162C318.958 84.4446 319.395 84.3647 319.76 84.1764C320.125 83.9881 320.45 83.7297 320.735 83.4013L321.578 84.1369C320.81 85.1843 319.719 85.6686 318.304 85.5897ZM318.547 78.0133C317.964 77.9809 317.464 78.1668 317.045 78.5712C316.626 78.9704 316.348 79.5496 316.212 80.3088L320.44 80.5445L320.446 80.4353C320.445 79.6998 320.279 79.1219 319.948 78.7018C319.617 78.2765 319.15 78.047 318.547 78.0133Z" fill="#F48989"/>
<path d="M324.953 85.045C324.967 84.7954 325.051 84.5914 325.206 84.4331C325.366 84.2751 325.594 84.2044 325.891 84.2209C326.187 84.2375 326.406 84.3331 326.548 84.5079C326.694 84.6831 326.761 84.8954 326.747 85.145C326.733 85.3842 326.644 85.5801 326.479 85.7326C326.319 85.8854 326.091 85.9535 325.795 85.937C325.499 85.9205 325.279 85.8274 325.138 85.6578C325.001 85.4885 324.939 85.2842 324.953 85.045Z" fill="#F48989"/>
<path d="M334.131 85.2908C334.646 85.3195 335.105 85.1886 335.507 84.898C335.909 84.6075 336.144 84.2293 336.212 83.7636L337.577 83.8398C337.524 84.3219 337.332 84.7729 337.001 85.1926C336.669 85.6123 336.239 85.9378 335.71 86.1691C335.186 86.4007 334.638 86.5005 334.066 86.4686C332.916 86.4046 332.022 85.9713 331.384 85.1689C330.751 84.3615 330.471 83.2922 330.546 81.961L330.559 81.7192C330.605 80.8975 330.796 80.1753 331.134 79.5525C331.471 78.9297 331.93 78.4571 332.512 78.1348C333.098 77.8128 333.776 77.6733 334.546 77.7162C335.492 77.769 336.262 78.0962 336.854 78.6978C337.452 79.2997 337.746 80.0543 337.737 80.9614L336.372 80.8853C336.361 80.3369 336.178 79.8781 335.823 79.5088C335.474 79.1346 335.026 78.9323 334.48 78.9018C333.747 78.861 333.162 79.0944 332.727 79.6022C332.297 80.1051 332.055 80.8558 331.999 81.8542L331.984 82.1273C331.93 83.0997 332.088 83.8597 332.459 84.4073C332.83 84.9548 333.388 85.2493 334.131 85.2908Z" fill="#F48989"/>
<path d="M340.506 82.3599C340.552 81.5331 340.755 80.7984 341.114 80.156C341.478 79.5138 341.959 79.0294 342.557 78.7028C343.159 78.3765 343.832 78.234 344.576 78.2755C345.725 78.3396 346.631 78.7892 347.294 79.6242C347.962 80.4596 348.259 81.5377 348.185 82.8586L348.18 82.96C348.134 83.7816 347.934 84.5112 347.58 85.1488C347.232 85.7814 346.754 86.2633 346.146 86.5946C345.543 86.9261 344.862 87.0707 344.103 87.0284C342.959 86.9646 342.053 86.515 341.385 85.6796C340.722 84.8446 340.427 83.7718 340.5 82.4613L340.506 82.3599ZM341.947 82.6124C341.895 83.5485 342.069 84.312 342.469 84.9029C342.874 85.494 343.441 85.8099 344.169 85.8505C344.902 85.8914 345.5 85.6379 345.964 85.0899C346.428 84.5368 346.689 83.7428 346.746 82.7079C346.798 81.7823 346.619 81.0211 346.209 80.4244C345.804 79.8228 345.238 79.5018 344.51 79.4612C343.797 79.4214 343.207 79.6728 342.738 80.2153C342.27 80.7577 342.006 81.5568 341.947 82.6124Z" fill="#F48989"/>
<path d="M561.377 80.4598L562.752 73.9412L564.196 73.8857L562.062 82.4272L560.891 82.4722L558.592 76.1496L556.839 82.628L555.668 82.673L552.892 74.3204L554.329 74.2651L556.235 80.5246L557.959 74.1255L559.122 74.0808L561.377 80.4598Z" fill="#F48989"/>
<path d="M574.998 79.9361L576.373 73.4175L577.818 73.362L575.683 81.9034L574.512 81.9484L572.213 75.6259L570.461 82.1042L569.29 82.1493L566.513 73.7966L567.95 73.7414L569.856 80.0009L571.58 73.6018L572.743 73.5571L574.998 79.9361Z" fill="#F48989"/>
<path d="M588.619 79.4124L589.995 72.8938L591.439 72.8382L589.304 81.3797L588.133 81.4247L585.834 75.1021L584.082 81.5805L582.911 81.6255L580.135 73.2729L581.571 73.2177L583.477 79.4772L585.201 73.0781L586.364 73.0334L588.619 79.4124Z" fill="#F48989"/>
<path d="M595.871 72.6678L595.947 73.6031C596.538 72.8507 597.359 72.4542 598.41 72.4138C599.592 72.3684 600.413 72.7903 600.875 73.6794C601.14 73.2627 601.492 72.9208 601.93 72.6538C602.373 72.3865 602.902 72.2411 603.516 72.2175C605.369 72.1463 606.349 73.0911 606.455 75.052L606.673 80.7119L605.229 80.7674L605.014 75.1934C604.991 74.5897 604.836 74.1448 604.549 73.8587C604.261 73.5675 603.792 73.4344 603.142 73.4594C602.606 73.48 602.167 73.6584 601.825 73.9947C601.484 74.3258 601.295 74.7631 601.258 75.3065L601.474 80.9118L600.022 80.9676L599.809 75.4326C599.762 74.2044 599.137 73.6134 597.935 73.6596C596.987 73.696 596.355 74.1243 596.037 74.9444L596.274 81.1117L594.83 81.1672L594.505 72.7203L595.871 72.6678Z" fill="#F48989"/>
<path d="M613.14 78.3445L614.864 71.9376L616.409 71.8781L613.388 81.7593C612.917 83.1847 612.108 83.9195 610.964 83.9635L610.689 83.9506L610.147 83.8698L610.102 82.6988L610.493 82.715C610.983 82.6962 611.359 82.5827 611.622 82.3745C611.89 82.1661 612.102 81.7957 612.259 81.2633L612.546 80.3922L609.212 72.1549L610.789 72.0942L613.14 78.3445Z" fill="#F48989"/>
<path d="M622.472 75.8591L618.662 76.0056L618.617 74.8268L622.426 74.6803L622.472 75.8591Z" fill="#F48989"/>
<path d="M630.478 77.5527C630.463 77.1624 630.304 76.8662 629.999 76.6642C629.699 76.4568 629.179 76.2892 628.439 76.1613C627.705 76.0332 627.117 75.8681 626.677 75.6661C626.241 75.464 625.914 75.2159 625.694 74.9221C625.48 74.628 625.364 74.2728 625.348 73.8565C625.322 73.1643 625.591 72.5675 626.155 72.0663C626.725 71.5649 627.465 71.2967 628.376 71.2617C629.333 71.2248 630.118 71.4422 630.731 71.9138C631.348 72.3853 631.672 73.0061 631.701 73.7764L630.249 73.8322C630.234 73.4366 630.052 73.1023 629.703 72.829C629.359 72.5556 628.932 72.4287 628.421 72.4483C627.896 72.4685 627.489 72.5988 627.201 72.8392C626.913 73.0796 626.777 73.3846 626.791 73.7541C626.804 74.1028 626.952 74.3603 627.235 74.5267C627.517 74.693 628.021 74.843 628.745 74.9768C629.475 75.1103 630.068 75.2803 630.524 75.4869C630.98 75.6935 631.321 75.9514 631.547 76.2607C631.777 76.5646 631.901 76.9429 631.919 77.3957C631.948 78.1503 631.669 78.7683 631.083 79.2495C630.497 79.7255 629.722 79.982 628.759 80.019C628.083 80.045 627.48 79.9483 626.95 79.7289C626.42 79.5095 625.999 79.1922 625.686 78.7768C625.378 78.356 625.214 77.8958 625.195 77.3962L626.639 77.3407C626.684 77.8237 626.891 78.2014 627.261 78.4739C627.637 78.7409 628.121 78.863 628.714 78.8402C629.261 78.8192 629.694 78.6931 630.013 78.4619C630.338 78.2253 630.493 77.9222 630.478 77.5527Z" fill="#F48989"/>
<path d="M637.058 79.5436L635.614 79.5991L635.289 71.1522L636.733 71.0967L637.058 79.5436ZM635.086 68.9162C635.077 68.682 635.14 68.4815 635.274 68.3148C635.413 68.1478 635.624 68.0589 635.905 68.0481C636.186 68.0373 636.402 68.1098 636.554 68.2655C636.706 68.4213 636.787 68.6162 636.796 68.8504C636.805 69.0846 636.739 69.2826 636.6 69.4443C636.46 69.6061 636.249 69.6924 635.968 69.7032C635.687 69.714 635.471 69.6441 635.319 69.4936C635.173 69.3428 635.095 69.1504 635.086 68.9162Z" fill="#F48989"/>
<path d="M642.532 68.8253L642.61 70.8707L644.187 70.8101L644.23 71.9264L642.653 71.9871L642.855 77.2254C642.868 77.5637 642.948 77.816 643.095 77.9823C643.242 78.1435 643.484 78.2175 643.823 78.2045C643.989 78.1981 644.217 78.1581 644.506 78.0844L644.551 79.2554C644.175 79.3741 643.808 79.4404 643.449 79.4542C642.803 79.479 642.309 79.3026 641.966 78.9248C641.623 78.5471 641.438 77.9991 641.41 77.2809L641.209 72.0426L639.671 72.1017L639.628 70.9854L641.166 70.9262L641.088 68.8809L642.532 68.8253Z" fill="#F48989"/>
<path d="M651.316 79.1517C650.171 79.1957 649.225 78.8568 648.478 78.135C647.731 77.408 647.333 76.4147 647.285 75.1552L647.275 74.8898C647.242 74.0519 647.372 73.2989 647.665 72.6309C647.962 71.9576 648.39 71.4251 648.948 71.0336C649.511 70.6366 650.129 70.4253 650.8 70.3994C651.898 70.3572 652.765 70.6861 653.402 71.3861C654.039 72.0861 654.383 73.1101 654.435 74.4581L654.458 75.0592L648.736 75.2792C648.789 76.1111 649.057 76.7758 649.54 77.2733C650.028 77.7653 650.631 77.9975 651.349 77.9699C651.859 77.9503 652.287 77.8296 652.633 77.6078C652.979 77.386 653.278 77.0983 653.53 76.7445L654.439 77.3976C653.773 78.5126 652.732 79.0973 651.316 79.1517ZM650.846 71.5861C650.263 71.6085 649.782 71.8407 649.402 72.2827C649.023 72.7194 648.801 73.3221 648.737 74.0908L652.968 73.9281L652.964 73.8188C652.894 73.0866 652.675 72.5269 652.305 72.1398C651.936 71.7474 651.449 71.5629 650.846 71.5861Z" fill="#F48989"/>
<path d="M657.884 77.9844C657.874 77.7346 657.939 77.5236 658.079 77.3515C658.223 77.1791 658.444 77.0873 658.74 77.0759C659.037 77.0644 659.264 77.1391 659.421 77.2999C659.584 77.4604 659.67 77.6656 659.68 77.9154C659.689 78.1548 659.618 78.3582 659.469 78.5255C659.324 78.6927 659.103 78.7819 658.806 78.7933C658.51 78.8047 658.283 78.7327 658.126 78.5771C657.974 78.4214 657.893 78.2238 657.884 77.9844Z" fill="#F48989"/>
<path d="M667.045 77.3664C667.56 77.3465 668.005 77.1731 668.378 76.846C668.751 76.519 668.949 76.1204 668.973 75.6504L670.339 75.5979C670.332 76.0829 670.183 76.5499 669.893 76.9989C669.602 77.4479 669.205 77.8124 668.699 78.0924C668.199 78.3722 667.663 78.5232 667.091 78.5452C665.94 78.5894 665.01 78.2421 664.298 77.5032C663.592 76.759 663.214 75.7207 663.162 74.3883L663.153 74.1463C663.121 73.324 663.244 72.587 663.521 71.9352C663.799 71.2835 664.212 70.7698 664.76 70.3943C665.314 70.0186 665.976 69.8159 666.746 69.7863C667.693 69.7499 668.49 70.0033 669.136 70.5466C669.788 71.0897 670.152 71.8132 670.228 72.7172L668.862 72.7697C668.799 72.2248 668.574 71.7853 668.186 71.451C667.803 71.1113 667.338 70.9519 666.792 70.9729C666.058 71.0012 665.498 71.2885 665.112 71.835C664.732 72.376 664.561 73.1462 664.599 74.1455L664.61 74.4187C664.647 75.3919 664.876 76.1337 665.297 76.6439C665.718 77.1542 666.301 77.395 667.045 77.3664Z" fill="#F48989"/>
<path d="M673.116 73.8493C673.084 73.0217 673.217 72.2713 673.514 71.5979C673.817 70.9243 674.25 70.3969 674.814 70.0156C675.383 69.6341 676.04 69.429 676.784 69.4004C677.934 69.3561 678.878 69.7186 679.617 70.4876C680.36 71.2565 680.758 72.3019 680.808 73.6239L680.812 73.7253C680.844 74.5477 680.714 75.2928 680.421 75.9608C680.134 76.6233 679.703 77.1481 679.129 77.535C678.56 77.9217 677.896 78.1297 677.136 78.1589C675.991 78.2029 675.047 77.8405 674.303 77.0717C673.565 76.3026 673.17 75.2623 673.12 73.9507L673.116 73.8493ZM674.575 73.9652C674.611 74.902 674.856 75.6457 675.309 76.1964C675.768 76.7469 676.362 77.0081 677.091 76.9801C677.825 76.9519 678.397 76.6432 678.807 76.0541C679.216 75.4598 679.401 74.6448 679.361 73.6091C679.326 72.6827 679.076 71.9418 678.611 71.3863C678.152 70.8254 677.558 70.559 676.829 70.587C676.116 70.6144 675.552 70.9202 675.137 71.5043C674.722 72.0884 674.534 72.9087 674.575 73.9652Z" fill="#F48989"/>
<path d="M685.415 69.2249L685.49 70.1602C686.081 69.4077 686.902 69.0113 687.954 68.9709C689.135 68.9255 689.957 69.3473 690.418 70.2365C690.684 69.8198 691.035 69.4779 691.473 69.2108C691.916 68.9436 692.445 68.7982 693.059 68.7746C694.912 68.7033 695.892 69.6482 695.998 71.6091L696.216 77.2689L694.772 77.3245L694.558 71.7505C694.534 71.1467 694.379 70.7019 694.092 70.4158C693.804 70.1245 693.335 69.9914 692.685 70.0164C692.149 70.0371 691.71 70.2155 691.369 70.5518C691.027 70.8829 690.838 71.3201 690.801 71.8636L691.017 77.4688L689.565 77.5247L689.352 71.9897C689.305 70.7614 688.68 70.1704 687.478 70.2167C686.531 70.2531 685.898 70.6813 685.58 71.5014L685.818 77.6688L684.373 77.7243L684.049 69.2774L685.415 69.2249Z" fill="#F48989"/>
<path d="M146.617 70.3449L146.914 71.2349C147.308 70.3626 148.01 69.7808 149.021 69.4894C150.157 69.162 151.056 69.3745 151.717 70.1271C151.875 69.6588 152.134 69.2426 152.496 68.8783C152.862 68.5126 153.34 68.2446 153.931 68.0744C155.712 67.5609 156.89 68.2432 157.464 70.1213L159.032 75.5638L157.644 75.9641L156.099 70.6041C155.931 70.0236 155.674 69.6289 155.327 69.4201C154.978 69.2063 154.49 69.1895 153.865 69.3698C153.349 69.5184 152.966 69.7969 152.715 70.2053C152.463 70.6086 152.384 71.0785 152.479 71.6148L154.033 77.0048L152.636 77.4072L151.102 72.0848C150.762 70.9037 150.014 70.4798 148.858 70.813C147.947 71.0755 147.436 71.6429 147.324 72.5153L149.033 78.4458L147.644 78.846L145.303 70.7235L146.617 70.3449Z" fill="#F48989"/>
<path d="M164.743 71.7146L164.88 65.0813L166.366 64.6529L165.803 74.9702C165.687 76.4671 165.079 77.3742 163.978 77.6916L163.708 77.7448L163.162 77.7965L162.838 76.6704L163.222 76.5923C163.692 76.4567 164.03 76.2563 164.235 75.9911C164.446 75.7245 164.563 75.3139 164.588 74.7594L164.658 73.845L159.445 66.6477L160.961 66.2107L164.743 71.7146Z" fill="#F48989"/>
<path d="M173.206 67.0638L169.543 68.1197L169.216 66.9861L172.879 65.9303L173.206 67.0638Z" fill="#F48989"/>
<path d="M181.386 66.7878C181.277 66.4124 181.051 66.1633 180.707 66.0403C180.366 65.9109 179.821 65.8728 179.072 65.926C178.328 65.9778 177.718 65.9585 177.242 65.868C176.771 65.7761 176.394 65.6139 176.11 65.3813C175.831 65.1473 175.634 64.8301 175.519 64.4297C175.327 63.7641 175.445 63.1203 175.873 62.4983C176.305 61.8749 176.96 61.437 177.836 61.1846C178.756 60.9192 179.571 60.942 180.278 61.253C180.991 61.5625 181.454 62.0877 181.667 62.8284L180.271 63.2308C180.161 62.8504 179.904 62.5695 179.5 62.388C179.1 62.2051 178.655 62.1843 178.164 62.3256C177.659 62.4713 177.295 62.6954 177.074 62.9978C176.852 63.3002 176.792 63.6291 176.895 63.9844C176.991 64.3197 177.197 64.5342 177.511 64.6279C177.825 64.7217 178.35 64.7466 179.085 64.7026C179.826 64.6573 180.442 64.6802 180.935 64.7713C181.427 64.8625 181.82 65.0311 182.113 65.2773C182.41 65.517 182.621 65.8545 182.746 66.2899C182.955 67.0156 182.833 67.6823 182.38 68.29C181.925 68.8927 181.234 69.3275 180.308 69.5944C179.658 69.7819 179.049 69.8327 178.482 69.7467C177.915 69.6607 177.43 69.4537 177.027 69.1255C176.627 68.7909 176.357 68.3834 176.219 67.9029L177.608 67.5026C177.767 67.9609 178.059 68.2778 178.483 68.4536C178.912 68.6228 179.411 68.6253 179.982 68.4608C180.507 68.3094 180.897 68.0831 181.152 67.7821C181.41 67.4745 181.488 67.1431 181.386 66.7878Z" fill="#F48989"/>
<path d="M191.164 66.3031L189.767 66.7055L187.099 57.4495L184.596 59.285L184.232 58.0238L187.78 55.3832L187.998 55.3205L191.164 66.3031Z" fill="#F48989"/>
<path d="M195.889 54.0138L196.456 55.9806L197.972 55.5436L198.281 56.6171L196.765 57.0541L198.217 62.0913C198.31 62.4166 198.449 62.6423 198.631 62.7685C198.813 62.8897 199.066 62.9035 199.391 62.8097C199.551 62.7635 199.763 62.67 200.026 62.5292L200.35 63.6553C200.014 63.8606 199.673 64.0131 199.328 64.1126C198.707 64.2915 198.185 64.2387 197.762 63.9542C197.338 63.6697 197.027 63.1822 196.828 62.4915L195.376 57.4544L193.897 57.8806L193.588 56.8071L195.067 56.3809L194.5 54.4141L195.889 54.0138Z" fill="#F48989"/>
<path d="M206.893 61.9321C205.792 62.2495 204.793 62.1473 203.894 61.6257C202.994 61.0991 202.37 60.2302 202.021 59.0191L201.947 58.7639C201.715 57.9581 201.661 57.196 201.784 56.4774C201.911 55.7524 202.199 55.1329 202.647 54.6189C203.099 54.0985 203.647 53.7452 204.293 53.5591C205.349 53.2548 206.27 53.366 207.056 53.8929C207.842 54.4198 208.422 55.3313 208.795 56.6275L208.962 57.2056L203.459 58.7915C203.71 59.5865 204.13 60.1675 204.718 60.5346C205.31 60.8952 205.951 60.976 206.642 60.7769C207.132 60.6356 207.519 60.4158 207.801 60.1175C208.084 59.8192 208.305 59.4682 208.465 59.0643L209.504 59.4804C209.125 60.7226 208.255 61.5398 206.893 61.9321ZM204.622 54.7002C204.061 54.8617 203.65 55.2025 203.388 55.7225C203.124 56.2375 203.054 56.8758 203.176 57.6375L207.244 56.4648L207.214 56.3597C206.971 55.6656 206.623 55.1749 206.172 54.8876C205.719 54.5953 205.202 54.5329 204.622 54.7002Z" fill="#F48989"/>
<path d="M212.989 59.2238C212.92 58.9836 212.933 58.7632 213.027 58.5627C213.126 58.3607 213.318 58.2186 213.603 58.1364C213.888 58.0542 214.126 58.0722 214.318 58.1906C214.514 58.3074 214.647 58.486 214.716 58.7262C214.782 58.9564 214.763 59.1707 214.657 59.3691C214.557 59.5661 214.364 59.7057 214.079 59.7879C213.794 59.8701 213.556 59.8546 213.366 59.7413C213.181 59.6265 213.056 59.454 212.989 59.2238Z" fill="#F48989"/>
<path d="M221.735 56.4268C222.231 56.284 222.62 56.0091 222.904 55.602C223.188 55.195 223.285 54.7605 223.195 54.2986L224.509 53.92C224.618 54.3926 224.585 54.8817 224.411 55.3872C224.237 55.8926 223.938 56.3419 223.515 56.7349C223.097 57.1265 222.612 57.4017 222.062 57.5603C220.956 57.8791 219.969 57.7651 219.101 57.2184C218.237 56.6652 217.621 55.748 217.251 54.4669L217.184 54.2342C216.956 53.4434 216.899 52.6984 217.012 51.9992C217.124 51.3 217.402 50.7023 217.845 50.2062C218.292 49.7087 218.886 49.3532 219.627 49.1397C220.538 48.8772 221.372 48.9321 222.13 49.3046C222.892 49.6755 223.419 50.2906 223.71 51.1499L222.397 51.5285C222.205 51.0146 221.881 50.6419 221.424 50.4104C220.97 50.1725 220.481 50.1293 219.956 50.2808C219.25 50.4841 218.775 50.8973 218.532 51.5203C218.293 52.1368 218.311 52.9255 218.588 53.8864L218.664 54.1492C218.934 55.085 219.334 55.7502 219.865 56.1446C220.396 56.539 221.019 56.633 221.735 56.4268Z" fill="#F48989"/>
<path d="M226.785 51.5564C226.556 50.7606 226.505 50.0003 226.632 49.2753C226.764 48.5488 227.058 47.9329 227.514 47.4274C227.975 46.9206 228.563 46.564 229.279 46.3577C230.385 46.039 231.389 46.1643 232.29 46.7339C233.196 47.302 233.833 48.2216 234.199 49.4928L234.227 49.5904C234.455 50.3811 234.507 51.1357 234.384 51.8543C234.264 52.5664 233.972 53.1792 233.507 53.6925C233.047 54.2043 232.452 54.5656 231.722 54.7762C230.621 55.0935 229.617 54.9681 228.711 54.4C227.809 53.8305 227.177 52.9151 226.813 51.654L226.785 51.5564ZM228.229 51.3191C228.489 52.2199 228.905 52.8832 229.478 53.309C230.055 53.7334 230.694 53.8446 231.395 53.6426C232.101 53.4392 232.582 53.0024 232.839 52.3322C233.094 51.657 233.078 50.8214 232.791 49.8255C232.534 48.9347 232.114 48.2753 231.53 47.8474C230.949 47.413 230.309 47.2968 229.608 47.4988C228.922 47.6964 228.448 48.1285 228.185 48.7952C227.922 49.4619 227.936 50.3032 228.229 51.3191Z" fill="#F48989"/>
<path d="M237.616 44.1175L237.913 45.0075C238.307 44.1352 239.009 43.5534 240.02 43.262C241.156 42.9346 242.055 43.1471 242.716 43.8997C242.874 43.4314 243.133 43.0152 243.494 42.6509C243.861 42.2852 244.339 42.0172 244.93 41.847C246.711 41.3335 247.889 42.0158 248.463 43.8939L250.031 49.3364L248.643 49.7367L247.098 44.3767C246.93 43.7962 246.673 43.4015 246.326 43.1927C245.977 42.9789 245.489 42.9621 244.864 43.1424C244.348 43.291 243.965 43.5695 243.714 43.9778C243.462 44.3812 243.383 44.8511 243.478 45.3874L245.032 50.7774L243.635 51.1798L242.101 45.8574C241.761 44.6763 241.013 44.2524 239.857 44.5856C238.946 44.8481 238.435 45.4155 238.323 46.2879L240.032 52.2184L238.643 52.6186L236.302 44.4961L237.616 44.1175Z" fill="#F48989"/>
<path d="M446.141 73.236L446.424 74.1919C446.874 73.2799 447.64 72.6874 448.724 72.4146C449.943 72.1081 450.889 72.3663 451.564 73.1893C451.749 72.6978 452.039 72.2652 452.436 71.8914C452.838 71.5164 453.356 71.2491 453.989 71.0898C455.899 70.609 457.125 71.3761 457.667 73.3912L459.135 79.2273L457.646 79.6021L456.2 73.8545C456.043 73.232 455.784 72.8036 455.423 72.5693C455.06 72.3296 454.543 72.2942 453.872 72.463C453.32 72.6021 452.903 72.8839 452.621 73.3085C452.339 73.7277 452.238 74.2238 452.32 74.7967L453.774 80.5765L452.277 80.9533L450.841 75.246C450.522 73.9795 449.743 73.5022 448.503 73.8142C447.526 74.06 446.963 74.644 446.813 75.5663L448.413 81.9257L446.924 82.3004L444.732 73.5906L446.141 73.236Z" fill="#F48989"/>
<path d="M465.339 75.3466L465.724 68.3077L467.318 67.9066L466.347 78.842C466.169 80.4273 465.49 81.3686 464.31 81.6657L464.022 81.7125L463.44 81.7476L463.136 80.5401L463.547 80.471C464.051 80.3441 464.417 80.1435 464.645 79.8694C464.878 79.5939 465.018 79.1621 465.064 78.5742L465.171 77.6057L459.896 69.7744L461.522 69.3651L465.339 75.3466Z" fill="#F48989"/>
<path d="M476.985 72.2787C476.884 71.8762 476.652 71.6035 476.291 71.4604C475.934 71.3107 475.357 71.2505 474.559 71.2799C473.768 71.308 473.121 71.2654 472.618 71.1521C472.122 71.0374 471.727 70.8515 471.434 70.5943C471.146 70.3357 470.948 69.9917 470.84 69.5624C470.661 68.8486 470.809 68.1693 471.286 67.5243C471.768 66.878 472.479 66.4366 473.418 66.2003C474.405 65.9518 475.269 66.0055 476.009 66.3613C476.755 66.7158 477.227 67.2902 477.427 68.0845L475.93 68.4613C475.827 68.0534 475.564 67.7458 475.141 67.5384C474.724 67.3297 474.252 67.2915 473.726 67.4239C473.184 67.5603 472.79 67.785 472.543 68.0981C472.297 68.4112 472.221 68.7583 472.317 69.1393C472.408 69.4989 472.618 69.7341 472.949 69.845C473.279 69.9559 473.835 70.0013 474.618 69.9813C475.406 69.9599 476.059 70.0066 476.579 70.1212C477.098 70.2358 477.509 70.4291 477.812 70.7011C478.118 70.9663 478.33 71.3324 478.448 71.7993C478.644 72.5775 478.49 73.281 477.986 73.9099C477.481 74.5334 476.732 74.9701 475.739 75.22C475.042 75.3956 474.393 75.4274 473.795 75.3156C473.196 75.2038 472.688 74.9664 472.271 74.6033C471.859 74.2335 471.588 73.791 471.458 73.2759L472.947 72.9011C473.1 73.3934 473.398 73.7406 473.843 73.9425C474.291 74.1378 474.822 74.1584 475.433 74.0045C475.997 73.8627 476.419 73.6365 476.701 73.3261C476.986 73.0089 477.081 72.6597 476.985 72.2787Z" fill="#F48989"/>
<path d="M484.262 72.904L482.773 73.2787L480.581 64.5689L482.07 64.1941L484.262 72.904ZM479.879 62.289C479.818 62.0475 479.839 61.8253 479.942 61.6225C480.051 61.4183 480.25 61.2797 480.539 61.2068C480.829 61.1339 481.07 61.1617 481.262 61.2902C481.454 61.4188 481.581 61.6038 481.642 61.8453C481.702 62.0868 481.678 62.3069 481.568 62.5058C481.458 62.7046 481.259 62.8404 480.969 62.9134C480.679 62.9863 480.439 62.9612 480.248 62.838C480.063 62.7135 479.94 62.5304 479.879 62.289Z" fill="#F48989"/>
<path d="M487.599 60.56L488.13 62.6691L489.756 62.2598L490.046 63.411L488.42 63.8202L489.779 69.2216C489.867 69.5704 490.005 69.8151 490.195 69.9558C490.383 70.091 490.651 70.1148 491 70.027C491.172 69.9838 491.4 69.8921 491.684 69.7521L491.988 70.9596C491.624 71.1655 491.256 71.3151 490.886 71.4082C490.22 71.5757 489.668 71.5007 489.228 71.1833C488.789 70.8659 488.476 70.3369 488.29 69.5964L486.931 64.195L485.345 64.594L485.055 63.4429L486.641 63.0438L486.11 60.9348L487.599 60.56Z" fill="#F48989"/>
<path d="M498.998 69.3666C497.818 69.6638 496.76 69.5191 495.825 68.9327C494.888 68.3409 494.257 67.3957 493.93 66.097L493.861 65.8233C493.644 64.9593 493.613 64.148 493.771 63.3895C493.932 62.6242 494.26 61.9767 494.754 61.4472C495.253 60.9109 495.848 60.5556 496.54 60.3814C497.673 60.0964 498.646 60.2479 499.462 60.8358C500.278 61.4238 500.86 62.4127 501.21 63.8026L501.366 64.4225L495.466 65.9074C495.703 66.7606 496.128 67.3928 496.739 67.8039C497.354 68.2082 498.032 68.3172 498.773 68.1309C499.299 67.9985 499.717 67.7791 500.028 67.4726C500.339 67.1661 500.587 66.8013 500.771 66.3782L501.859 66.8577C501.412 68.163 500.458 68.9993 498.998 69.3666ZM496.848 61.6049C496.247 61.7562 495.798 62.1032 495.501 62.6459C495.202 63.1832 495.104 63.8585 495.206 64.6717L499.569 63.5737L499.541 63.461C499.307 62.7151 498.956 62.1815 498.487 61.8601C498.017 61.5333 497.471 61.4483 496.848 61.6049Z" fill="#F48989"/>
<path d="M505.57 66.7114C505.505 66.4538 505.526 66.2202 505.633 66.0107C505.746 65.7998 505.955 65.6559 506.261 65.5789C506.566 65.5019 506.819 65.5297 507.018 65.6623C507.222 65.7935 507.356 65.9879 507.421 66.2455C507.483 66.4923 507.455 66.7192 507.336 66.9261C507.222 67.1316 507.012 67.2729 506.706 67.3498C506.4 67.4268 506.149 67.4017 505.951 67.2745C505.759 67.146 505.632 66.9583 505.57 66.7114Z" fill="#F48989"/>
<path d="M514.958 64.0578C515.489 63.9241 515.913 63.6463 516.229 63.2243C516.545 62.8024 516.664 62.3446 516.585 61.8508L517.994 61.4962C518.093 62.0021 518.04 62.5202 517.837 63.0507C517.634 63.5812 517.301 64.0474 516.837 64.4495C516.378 64.8501 515.854 65.1248 515.264 65.2733C514.078 65.5718 513.034 65.415 512.132 64.8031C511.235 64.1844 510.613 63.1881 510.267 61.8143L510.205 61.5648C509.991 60.7169 509.957 59.9237 510.102 59.1853C510.247 58.4469 510.564 57.8223 511.052 57.3115C511.545 56.7994 512.188 56.4434 512.983 56.2435C513.959 55.9977 514.843 56.0862 515.635 56.5091C516.431 56.9306 516.968 57.6029 517.246 58.5259L515.838 58.8804C515.653 58.3277 515.322 57.9202 514.845 57.6579C514.372 57.3889 513.854 57.3252 513.291 57.467C512.534 57.6575 512.015 58.079 511.734 58.7318C511.458 59.3778 511.449 60.216 511.708 61.2463L511.779 61.5281C512.032 62.5316 512.433 63.2524 512.982 63.6904C513.532 64.1285 514.19 64.2509 514.958 64.0578Z" fill="#F48989"/>
<path d="M520.497 59.0688C520.282 58.2155 520.255 57.4062 520.417 56.641C520.583 55.8743 520.918 55.2309 521.42 54.7107C521.928 54.1892 522.566 53.8318 523.333 53.6387C524.519 53.3402 525.58 53.5097 526.517 54.1471C527.459 54.7832 528.101 55.7827 528.444 57.1458L528.47 57.2505C528.684 58.0984 528.712 58.9016 528.555 59.6602C528.402 60.412 528.069 61.0521 527.557 61.5804C527.051 62.1073 526.406 62.4693 525.622 62.6665C524.442 62.9636 523.38 62.7942 522.438 62.1581C521.502 61.5207 520.864 60.5258 520.523 59.1734L520.497 59.0688ZM522.039 58.8691C522.282 59.8351 522.7 60.5545 523.292 61.0273C523.89 61.4989 524.565 61.6401 525.316 61.451C526.073 61.2606 526.6 60.8141 526.897 60.1117C527.192 59.404 527.205 58.5161 526.937 57.4482C526.696 56.4929 526.274 55.7775 525.669 55.302C525.068 54.8198 524.392 54.6732 523.641 54.8623C522.906 55.0473 522.386 55.489 522.083 56.1874C521.779 56.8858 521.765 57.7797 522.039 58.8691Z" fill="#F48989"/>
<path d="M532.267 51.5616L532.55 52.5174C533 51.6054 533.767 51.013 534.851 50.7402C536.069 50.4336 537.016 50.6918 537.691 51.5149C537.875 51.0234 538.166 50.5907 538.562 50.217C538.964 49.8419 539.482 49.5747 540.115 49.4153C542.026 48.9345 543.252 49.7017 543.793 51.7167L545.262 57.5528L543.773 57.9276L542.326 52.1801C542.169 51.5575 541.91 51.1291 541.549 50.8948C541.186 50.6551 540.669 50.6197 539.999 50.7885C539.446 50.9276 539.029 51.2095 538.748 51.634C538.465 52.0532 538.365 52.5493 538.446 53.1223L539.901 58.902L538.403 59.2788L536.967 53.5715C536.648 52.305 535.869 51.8278 534.629 52.1397C533.653 52.3855 533.089 52.9696 532.939 53.8919L534.539 60.2512L533.05 60.626L530.858 51.9161L532.267 51.5616Z" fill="#F48989"/>
<path d="M72.2251 61.0123C72.3843 60.3413 72.4935 59.6314 72.5263 58.8715C73.1567 45.0732 65.617 33.7747 54.3154 26.5112C47.5933 22.1891 41.2177 26.9013 39.5981 32.9103C35.4319 29.5945 28.2168 34.5564 31.4624 40.0068C31.581 40.2049 31.7027 40.4047 31.8244 40.6044C28.5664 40.5919 18.1837 40.5591 21.0907 40.6075C24.5266 40.6668 32.7715 49.9135 32.7715 49.9135V42.1117C35.304 45.9845 38.5417 49.6076 43.3601 50.1553C45.5571 50.4065 47.3718 49.7262 48.8635 48.5357C50.7468 50.8403 51.7064 53.4274 51.8937 56.5325C50.2444 56.5075 48.5904 56.5746 46.9208 56.7697C41.1615 57.4484 37.6071 58.717 36.443 64.7415C34.6923 73.8291 39.4186 80.4668 44.5163 87.4135C48.6637 93.0636 58.21 87.5883 54.008 81.8587C50.5721 77.1776 47.1159 73.3313 47.2579 67.8919C50.6157 67.3817 53.9549 67.519 57.3643 67.8451C59.0323 68.5629 60.9141 68.8531 62.7772 68.708C65.5562 77.9999 70.8333 86.276 77.6676 93.3351C82.6077 98.439 90.3736 90.6481 85.4413 85.5661C78.6647 78.5569 74.1256 70.4478 72.2251 61.0123Z" fill="#F48989"/>
<path d="M30.6182 16.4064C30.6323 16.5624 30.637 16.7184 30.6588 16.876C31.3594 21.9628 36.0483 25.5189 41.1319 24.8183C46.2187 24.1192 49.77 19.4319 49.0741 14.3451C48.9306 13.2872 48.606 12.3026 48.1473 11.4039C48.4609 11.2525 48.6029 10.8921 48.4968 10.1415L48.1941 7.92115C47.8508 5.43863 45.5618 3.70039 43.0824 4.04367L33.1866 5.40118C30.6978 5.74446 28.9643 8.0335 29.306 10.5191L29.5478 12.3151C28.1607 13.4214 26.9888 14.8195 27.2432 16.3018C27.4648 17.6172 28.9221 17.2911 30.6182 16.4064Z" fill="#F48989"/>
<path d="M55.7228 24.9072C55.7228 24.9072 78.0047 36.8533 75.3723 54.4603C69.6021 69.1402 94.7972 84.26 108.497 50.4034C108.496 50.4034 125.94 4.00151 55.7228 24.9072ZM93.4475 52.5348V55.3653H90.436V52.7018C89.0411 52.5707 87.6539 52.1104 86.7567 51.4738L86.3339 51.1695L87.4261 48.1143L88.1595 48.6027C89.1097 49.2378 90.3377 49.6045 91.5142 49.6045C92.9544 49.6045 93.9156 48.8571 93.9156 47.7477C93.9156 46.9987 93.6176 46.1857 91.4128 45.2932C89.0848 44.382 86.699 43.0541 86.699 40.1643C86.699 37.841 88.2266 36.0294 90.6217 35.4255V32.6746H93.6067V35.2383C94.7473 35.3538 95.7444 35.6705 96.6416 36.1963L97.1424 36.4928L96.0034 39.5012L95.3012 39.1017C94.8893 38.8661 93.9172 38.3091 92.374 38.3091C90.8526 38.3091 90.3112 39.108 90.3112 39.8554C90.3112 40.6652 90.7138 41.1895 93.1058 42.1819C95.1748 43.0245 97.5575 44.4007 97.5575 47.5667C97.5528 49.9649 95.9254 51.9029 93.4475 52.5348Z" fill="#F48989"/>
</svg>
